<?xml version="1.0" encoding="UTF-8" standalone="no"?>
<svg
   width="520"
   height="520"
   viewBox="0 0 520 520"
   fill="none"
   version="1.1"
   id="svg16"
   sodipodi:docname="ButtonSquare.svg"
   inkscape:version="1.4.2 (f4327f4, 2025-05-13)"
   inkscape:export-filename="Button-0.png"
   inkscape:export-xdpi="2.9538462"
   inkscape:export-ydpi="2.9538462"
   xmlns:inkscape="http://www.inkscape.org/namespaces/inkscape"
   xmlns:sodipodi="http://sodipodi.sourceforge.net/DTD/sodipodi-0.dtd"
   xmlns="http://www.w3.org/2000/svg"
   xmlns:svg="http://www.w3.org/2000/svg">
  <sodipodi:namedview
     id="namedview16"
     pagecolor="#ffffff"
     bordercolor="#000000"
     borderopacity="0.25"
     inkscape:showpageshadow="2"
     inkscape:pageopacity="0.0"
     inkscape:pagecheckerboard="true"
     inkscape:deskcolor="#d1d1d1"
     inkscape:zoom="2.6997606"
     inkscape:cx="187.97963"
     inkscape:cy="253.9114"
     inkscape:window-width="2560"
     inkscape:window-height="1311"
     inkscape:window-x="-9"
     inkscape:window-y="31"
     inkscape:window-maximized="1"
     inkscape:current-layer="g1" />
  <g
     id="g2"
     transform="matrix(1.1640969,0,0,1.1640969,242.53855,242.53855)"
     style="display:inline;fill:#000000;fill-opacity:1;filter:url(#filter2);opacity:0.888">
    <path
       id="path1"
       style="fill:#000000;fill-opacity:1;stroke-width:10.1366"
       d="m -86.366135,-137.0492 c -28.078415,0 -50.683065,22.60465 -50.683065,50.683065 V 14.999997 c 0,28.078417 22.60465,50.683066 50.683065,50.683066 5.598248,0 10.137284,4.538833 10.137284,10.137284 0,5.598451 -4.539036,10.135607 -10.137284,10.135607 h -10.137284 c -22.462741,0 -40.545781,18.084726 -40.545781,40.547456 0,22.46274 18.08304,40.54578 40.545781,40.54578 H 126.50341 c 22.46274,0 40.54578,-18.08304 40.54578,-40.54578 0,-22.46273 -18.08304,-40.547456 -40.54578,-40.547456 h -10.13728 c -5.59845,0 -10.13729,-4.537156 -10.13729,-10.135607 0,-5.598451 4.53884,-10.137284 10.13729,-10.137284 28.07842,0 50.68306,-22.604649 50.68306,-50.683066 V -86.366135 c 0,-28.078415 -22.60464,-50.683065 -50.68306,-50.683065 H 75.820347 c -28.078417,0 -50.683066,22.60465 -50.683066,50.683065 v 30.415209 c -0.0025,5.596358 -4.54035,10.130573 -10.137284,10.130573 -5.5970941,0 -10.1350848,-4.535672 -10.1372843,-10.132251 v -30.413531 c 0,-28.078415 -22.6046487,-50.683065 -50.6830657,-50.683065 z M 14.999997,-25.545785 c 5.596934,0 10.134825,4.534215 10.137284,10.130573 v 30.415209 c 0,28.078417 22.604649,50.683066 50.683066,50.683066 5.598451,0 10.135607,4.538833 10.135607,10.137284 0,5.598451 -4.537156,10.135607 -10.135607,10.135607 h -121.6407 c -5.598249,0 -10.135607,-4.537156 -10.135607,-10.135607 0,-5.598451 4.537358,-10.137284 10.135607,-10.137284 28.078417,0 50.6830657,-22.604649 50.6830657,-50.683066 v -30.413531 c 0.0022,-5.596579 4.5401902,-10.132251 10.1372843,-10.132251 z" />
  </g>
  <g
     id="g1"
     transform="matrix(11.8,0,0,11.8,83,83)"
     style="display:none">
    <path
       id="rect7"
       style="fill:#6756bd"
       d="m 5,0 h 4 c 2.77,0 5,2.23 5,5 v 10 c 0,2.77 -2.23,5 -5,5 H 5 C 2.23,20 0,17.77 0,15 V 5 C 0,2.23 2.23,0 5,0 Z" />
    <path
       id="rect8"
       style="fill:#4987fc"
       d="m 21,0 h 4 c 2.77,0 5,2.23 5,5 v 10 c 0,2.77 -2.23,5 -5,5 h -4 c -2.77,0 -5,-2.23 -5,-5 V 5 c 0,-2.77 2.23,-5 5,-5 z" />
    <path
       id="rect9"
       style="fill:#fae387"
       d="m 4,22 h 22 c 2.216,0 4,1.784 4,4 0,2.216 -1.784,4 -4,4 H 4 C 1.784,30 0,28.216 0,26 0,23.784 1.784,22 4,22 Z" />
    <path
       fill-rule="evenodd"
       clip-rule="evenodd"
       d="M 5,22 C 5.55228,22 6,21.5523 6,21 6,20.4477 5.55228,20 5,20 h 4 c -0.55228,0 -1,0.4477 -1,1 0,0.5523 0.44772,1 1,1 z"
       fill="url(#paint0_linear_976_259)"
       id="path9"
       style="fill:url(#paint0_linear_976_259)" />
    <path
       fill-rule="evenodd"
       clip-rule="evenodd"
       d="m 21,22 c 0.5523,0 1,-0.4477 1,-1 0,-0.5523 -0.4477,-1 -1,-1 h 4 c -0.5523,0 -1,0.4477 -1,1 0,0.5523 0.4477,1 1,1 z"
       fill="url(#paint1_linear_976_259)"
       id="path10"
       style="fill:url(#paint1_linear_976_259)" />
    <path
       fill-rule="evenodd"
       clip-rule="evenodd"
       d="m 14,8 c 0,0.5523 0.4477,1 1,1 0.5523,0 1,-0.4477 1,-1 v 4 c 0,-0.5523 -0.4477,-1 -1,-1 -0.5523,0 -1,0.4477 -1,1 z"
       fill="url(#paint2_linear_976_259)"
       id="path11"
       style="fill:url(#paint2_linear_976_259)" />
  </g>
  <defs
     id="defs16">
    <linearGradient
       id="paint0_linear_976_259"
       x1="7"
       y1="22"
       x2="7"
       y2="24"
       gradientUnits="userSpaceOnUse"
       gradientTransform="translate(0,-2)">
      <stop
         stop-color="#6756BD"
         id="stop11" />
      <stop
         offset="1"
         stop-color="#FAE387"
         id="stop12" />
    </linearGradient>
    <linearGradient
       id="paint1_linear_976_259"
       x1="23"
       y1="22"
       x2="23"
       y2="24"
       gradientUnits="userSpaceOnUse"
       gradientTransform="translate(0,-2)">
      <stop
         stop-color="#4987FC"
         id="stop13" />
      <stop
         offset="1"
         stop-color="#FAE387"
         id="stop14" />
    </linearGradient>
    <linearGradient
       id="paint2_linear_976_259"
       x1="16"
       y1="12"
       x2="14"
       y2="12"
       gradientUnits="userSpaceOnUse"
       gradientTransform="translate(0,-2)">
      <stop
         stop-color="#4987FC"
         id="stop15" />
      <stop
         offset="1"
         stop-color="#6756BD"
         id="stop16" />
    </linearGradient>
    <filter
       inkscape:collect="always"
       style="color-interpolation-filters:sRGB"
       id="filter2"
       x="-0.1002252"
       y="-0.1002252"
       width="1.2004504"
       height="1.2004504">
      <feGaussianBlur
         inkscape:collect="always"
         stdDeviation="12.699301"
         id="feGaussianBlur2" />
    </filter>
  </defs>
  <g
     id="g15"
     transform="matrix(1.1640969,0,0,1.1640969,242.53855,242.53855)"
     style="display:inline;fill:#ffffff;fill-opacity:1">
    <path
       id="path14"
       style="fill:#ffffff;fill-opacity:1;stroke-width:10.1366"
       d="m -86.366135,-137.0492 c -28.078415,0 -50.683065,22.60465 -50.683065,50.683065 V 14.999997 c 0,28.078417 22.60465,50.683066 50.683065,50.683066 5.598248,0 10.137284,4.538833 10.137284,10.137284 0,5.598451 -4.539036,10.135607 -10.137284,10.135607 h -10.137284 c -22.462741,0 -40.545781,18.084726 -40.545781,40.547456 0,22.46274 18.08304,40.54578 40.545781,40.54578 H 126.50341 c 22.46274,0 40.54578,-18.08304 40.54578,-40.54578 0,-22.46273 -18.08304,-40.547456 -40.54578,-40.547456 h -10.13728 c -5.59845,0 -10.13729,-4.537156 -10.13729,-10.135607 0,-5.598451 4.53884,-10.137284 10.13729,-10.137284 28.07842,0 50.68306,-22.604649 50.68306,-50.683066 V -86.366135 c 0,-28.078415 -22.60464,-50.683065 -50.68306,-50.683065 H 75.820347 c -28.078417,0 -50.683066,22.60465 -50.683066,50.683065 v 30.415209 c -0.0025,5.596358 -4.54035,10.130573 -10.137284,10.130573 -5.5970941,0 -10.1350848,-4.535672 -10.1372843,-10.132251 v -30.413531 c 0,-28.078415 -22.6046487,-50.683065 -50.6830657,-50.683065 z M 14.999997,-25.545785 c 5.596934,0 10.134825,4.534215 10.137284,10.130573 v 30.415209 c 0,28.078417 22.604649,50.683066 50.683066,50.683066 5.598451,0 10.135607,4.538833 10.135607,10.137284 0,5.598451 -4.537156,10.135607 -10.135607,10.135607 h -121.6407 c -5.598249,0 -10.135607,-4.537156 -10.135607,-10.135607 0,-5.598451 4.537358,-10.137284 10.135607,-10.137284 28.078417,0 50.6830657,-22.604649 50.6830657,-50.683066 v -30.413531 c 0.0022,-5.596579 4.5401902,-10.132251 10.1372843,-10.132251 z" />
  </g>
</svg>
