<?xml version="1.0" encoding="UTF-8" standalone="no"?>
<svg
   width="780"
   height="520"
   viewBox="0 0 780 520"
   fill="none"
   version="1.1"
   id="svg16"
   sodipodi:docname="ButtonWide.svg"
   inkscape:version="1.4.2 (f4327f4, 2025-05-13)"
   inkscape:export-filename="ButtonColor.png"
   inkscape:export-xdpi="9.6000004"
   inkscape:export-ydpi="9.6000004"
   xmlns:inkscape="http://www.inkscape.org/namespaces/inkscape"
   xmlns:sodipodi="http://sodipodi.sourceforge.net/DTD/sodipodi-0.dtd"
   xmlns="http://www.w3.org/2000/svg"
   xmlns:svg="http://www.w3.org/2000/svg">
  <sodipodi:namedview
     id="namedview16"
     pagecolor="#ffffff"
     bordercolor="#000000"
     borderopacity="0.25"
     inkscape:showpageshadow="2"
     inkscape:pageopacity="0.0"
     inkscape:pagecheckerboard="true"
     inkscape:deskcolor="#d1d1d1"
     inkscape:zoom="1.3498803"
     inkscape:cx="355.95749"
     inkscape:cy="279.65443"
     inkscape:window-width="2560"
     inkscape:window-height="1311"
     inkscape:window-x="-9"
     inkscape:window-y="31"
     inkscape:window-maximized="1"
     inkscape:current-layer="svg16" />
  <g
     id="g14"
     transform="matrix(1.1640969,0,0,1.1640969,372.53855,242.53855)"
     style="fill:#000000;fill-opacity:1;filter:url(#filter15);opacity:0.8880814">
    <path
       id="rect5"
       style="fill:#000000;stroke-width:10.1366;fill-opacity:1"
       d="M -86.366135 -137.0492 C -114.44455 -137.0492 -137.0492 -114.44455 -137.0492 -86.366135 L -137.0492 14.999997 C -137.0492 43.078414 -114.44455 65.683063 -86.366135 65.683063 C -80.767887 65.683063 -76.228851 70.221896 -76.228851 75.820347 C -76.228851 81.418798 -80.767887 85.955954 -86.366135 85.955954 L -96.503419 85.955954 C -118.96616 85.955954 -137.0492 104.04068 -137.0492 126.50341 C -137.0492 148.96615 -118.96616 167.04919 -96.503419 167.04919 L 126.50341 167.04919 C 148.96615 167.04919 167.04919 148.96615 167.04919 126.50341 C 167.04919 104.04068 148.96615 85.955954 126.50341 85.955954 L 116.36613 85.955954 C 110.76768 85.955954 106.22884 81.418798 106.22884 75.820347 C 106.22884 70.221896 110.76768 65.683063 116.36613 65.683063 C 144.44455 65.683063 167.04919 43.078414 167.04919 14.999997 L 167.04919 -86.366135 C 167.04919 -114.44455 144.44455 -137.0492 116.36613 -137.0492 L 75.820347 -137.0492 C 47.74193 -137.0492 25.137281 -114.44455 25.137281 -86.366135 L 25.137281 -55.950926 C 25.134822 -50.354568 20.596931 -45.820353 14.999997 -45.820353 C 9.4029029 -45.820353 4.8649122 -50.356025 4.8627127 -55.952604 L 4.8627127 -86.366135 C 4.8627127 -114.44455 -17.741936 -137.0492 -45.820353 -137.0492 L -86.366135 -137.0492 z M 14.999997 -25.545785 C 20.596931 -25.545785 25.134822 -21.01157 25.137281 -15.415212 L 25.137281 14.999997 C 25.137281 43.078414 47.74193 65.683063 75.820347 65.683063 C 81.418798 65.683063 85.955954 70.221896 85.955954 75.820347 C 85.955954 81.418798 81.418798 85.955954 75.820347 85.955954 L -45.820353 85.955954 C -51.418602 85.955954 -55.95596 81.418798 -55.95596 75.820347 C -55.95596 70.221896 -51.418602 65.683063 -45.820353 65.683063 C -17.741936 65.683063 4.8627127 43.078414 4.8627127 14.999997 L 4.8627127 -15.413534 C 4.8649122 -21.010113 9.4029029 -25.545785 14.999997 -25.545785 z " />
  </g>
  <g
     id="g1"
     transform="matrix(1.1640969,0,0,1.1640969,372.53855,242.53855)"
     style="display:inline">
    <rect
       y="-137.04919"
       width="141.91258"
       height="202.73225"
       rx="50.683064"
       fill="#6756bd"
       id="rect7"
       x="-137.04919"
       style="stroke-width:10.1366" />
    <rect
       x="25.136612"
       y="-137.04919"
       width="141.91258"
       height="202.73225"
       rx="50.683064"
       fill="#4987fc"
       id="rect8"
       style="stroke-width:10.1366" />
    <rect
       y="85.956291"
       width="304.09839"
       height="81.092903"
       rx="40.546452"
       fill="#fae387"
       id="rect9"
       x="-137.04919"
       style="stroke-width:10.1366" />
    <path
       fill-rule="evenodd"
       clip-rule="evenodd"
       d="m -86.366127,85.956289 c 5.598248,0 10.136613,-4.538162 10.136613,-10.136613 0,-5.598451 -4.538365,-10.136612 -10.136613,-10.136612 h 40.546451 c -5.598249,0 -10.136613,4.538161 -10.136613,10.136612 0,5.598451 4.538364,10.136613 10.136613,10.136613 z"
       fill="url(#paint0_linear_976_259)"
       id="path9"
       style="fill:url(#paint0_linear_976_259);stroke-width:10.1366" />
    <path
       fill-rule="evenodd"
       clip-rule="evenodd"
       d="m 75.819676,85.956289 c 5.598451,0 10.136613,-4.538162 10.136613,-10.136613 0,-5.598451 -4.538162,-10.136612 -10.136613,-10.136612 h 40.546454 c -5.59845,0 -10.13662,4.538161 -10.13662,10.136612 0,5.598451 4.53817,10.136613 10.13662,10.136613 z"
       fill="url(#paint1_linear_976_259)"
       id="path10"
       style="fill:url(#paint1_linear_976_259);stroke-width:10.1366" />
    <path
       fill-rule="evenodd"
       clip-rule="evenodd"
       d="m 4.8633873,-55.956289 c 0,5.598451 4.5381615,10.136613 10.1366127,10.136613 5.598451,0 10.136613,-4.538162 10.136613,-10.136613 v 40.546451 c 0,-5.598451 -4.538162,-10.136613 -10.136613,-10.136613 -5.5984512,0 -10.1366127,4.538162 -10.1366127,10.136613 z"
       fill="url(#paint2_linear_976_259)"
       id="path11"
       style="fill:url(#paint2_linear_976_259);stroke-width:10.1366" />
  </g>
  <defs
     id="defs16">
    <linearGradient
       id="paint0_linear_976_259"
       x1="7"
       y1="22"
       x2="7"
       y2="24"
       gradientUnits="userSpaceOnUse"
       gradientTransform="matrix(10.136613,0,0,10.136613,-137.04919,-157.32242)">
      <stop
         stop-color="#6756BD"
         id="stop11" />
      <stop
         offset="1"
         stop-color="#FAE387"
         id="stop12" />
    </linearGradient>
    <linearGradient
       id="paint1_linear_976_259"
       x1="23"
       y1="22"
       x2="23"
       y2="24"
       gradientUnits="userSpaceOnUse"
       gradientTransform="matrix(10.136613,0,0,10.136613,-137.04919,-157.32242)">
      <stop
         stop-color="#4987FC"
         id="stop13" />
      <stop
         offset="1"
         stop-color="#FAE387"
         id="stop14" />
    </linearGradient>
    <linearGradient
       id="paint2_linear_976_259"
       x1="16"
       y1="12"
       x2="14"
       y2="12"
       gradientUnits="userSpaceOnUse"
       gradientTransform="matrix(10.136613,0,0,10.136613,-137.04919,-157.32242)">
      <stop
         stop-color="#4987FC"
         id="stop15" />
      <stop
         offset="1"
         stop-color="#6756BD"
         id="stop16" />
    </linearGradient>
    <filter
       inkscape:collect="always"
       style="color-interpolation-filters:sRGB"
       id="filter15"
       x="-0.10140616"
       y="-0.10140616"
       width="1.2028123"
       height="1.2028123">
      <feGaussianBlur
         inkscape:collect="always"
         stdDeviation="12.848938"
         id="feGaussianBlur15" />
    </filter>
  </defs>
  <g
     id="g15"
     transform="matrix(1.1640969,0,0,1.1640969,372.53855,242.53855)"
     style="display:none;fill:#ffffff;fill-opacity:1">
    <path
       id="path14"
       style="fill:#ffffff;fill-opacity:1;stroke-width:10.1366"
       d="m -86.366135,-137.0492 c -28.078415,0 -50.683065,22.60465 -50.683065,50.683065 V 14.999997 c 0,28.078417 22.60465,50.683066 50.683065,50.683066 5.598248,0 10.137284,4.538833 10.137284,10.137284 0,5.598451 -4.539036,10.135607 -10.137284,10.135607 h -10.137284 c -22.462741,0 -40.545781,18.084726 -40.545781,40.547456 0,22.46274 18.08304,40.54578 40.545781,40.54578 H 126.50341 c 22.46274,0 40.54578,-18.08304 40.54578,-40.54578 0,-22.46273 -18.08304,-40.547456 -40.54578,-40.547456 h -10.13728 c -5.59845,0 -10.13729,-4.537156 -10.13729,-10.135607 0,-5.598451 4.53884,-10.137284 10.13729,-10.137284 28.07842,0 50.68306,-22.604649 50.68306,-50.683066 V -86.366135 c 0,-28.078415 -22.60464,-50.683065 -50.68306,-50.683065 H 75.820347 c -28.078417,0 -50.683066,22.60465 -50.683066,50.683065 v 30.415209 c -0.0025,5.596358 -4.54035,10.130573 -10.137284,10.130573 -5.5970941,0 -10.1350848,-4.535672 -10.1372843,-10.132251 v -30.413531 c 0,-28.078415 -22.6046487,-50.683065 -50.6830657,-50.683065 z M 14.999997,-25.545785 c 5.596934,0 10.134825,4.534215 10.137284,10.130573 v 30.415209 c 0,28.078417 22.604649,50.683066 50.683066,50.683066 5.598451,0 10.135607,4.538833 10.135607,10.137284 0,5.598451 -4.537156,10.135607 -10.135607,10.135607 h -121.6407 c -5.598249,0 -10.135607,-4.537156 -10.135607,-10.135607 0,-5.598451 4.537358,-10.137284 10.135607,-10.137284 28.078417,0 50.6830657,-22.604649 50.6830657,-50.683066 v -30.413531 c 0.0022,-5.596579 4.5401902,-10.132251 10.1372843,-10.132251 z" />
  </g>
</svg>
