<?xml version="1.0" encoding="UTF-8" standalone="no"?>
<!-- Created with Inkscape (http://www.inkscape.org/) -->

<svg
   width="520mm"
   height="520mm"
   viewBox="0 0 520 520.00003"
   version="1.1"
   id="svg1"
   inkscape:version="1.4.2 (f4327f4, 2025-05-13)"
   sodipodi:docname="ButtonSquare.svg"
   inkscape:export-filename="ButtonColor-8.png"
   inkscape:export-xdpi="12.504615"
   inkscape:export-ydpi="12.504615"
   xmlns:inkscape="http://www.inkscape.org/namespaces/inkscape"
   xmlns:sodipodi="http://sodipodi.sourceforge.net/DTD/sodipodi-0.dtd"
   xmlns="http://www.w3.org/2000/svg"
   xmlns:svg="http://www.w3.org/2000/svg">
  <sodipodi:namedview
     id="namedview1"
     pagecolor="#000000"
     bordercolor="#000000"
     borderopacity="0.25"
     inkscape:showpageshadow="2"
     inkscape:pageopacity="0.0"
     inkscape:pagecheckerboard="true"
     inkscape:deskcolor="#d1d1d1"
     inkscape:document-units="mm"
     showgrid="true"
     inkscape:clip-to-page="false"
     inkscape:zoom="0.34425575"
     inkscape:cx="1037.0197"
     inkscape:cy="533.03394"
     inkscape:window-width="2560"
     inkscape:window-height="1311"
     inkscape:window-x="-9"
     inkscape:window-y="31"
     inkscape:window-maximized="1"
     inkscape:current-layer="layer1" />
  <defs
     id="defs1">
    <filter
       inkscape:collect="always"
       style="color-interpolation-filters:sRGB"
       id="filter4"
       x="-0.078684132"
       y="-0.13753424"
       width="1.1573683"
       height="1.2750685">
      <feGaussianBlur
         inkscape:collect="always"
         stdDeviation="21.301762"
         id="feGaussianBlur4" />
    </filter>
  </defs>
  <g
     inkscape:label="Layer 1"
     inkscape:groupmode="layer"
     id="layer1"
     transform="translate(-19.05,-99.21875)">
    <g
       id="g3"
       transform="matrix(0.84389227,0,0,0.84389227,-47.595391,32.564928)"
       style="opacity:0.888199;fill:#000000;fill-opacity:1;filter:url(#filter4)">
      <path
         class="cls-2"
         d="M 577.07,207.49 H 464.68 l -66.15,176.13 c 2.53,3.67 4.75,7.46 6.85,11.37 8.9,16.78 13.35,36.5 13.35,58.75 0,36.62 -9.26,67.23 -27.6,91.04 -6.19,8.06 -13.23,15.33 -20.99,21.89 h 55.8 l 21.47,-62.24 h 143.24 l 21.47,62.24 h 99.82 L 577.06,207.5 Z M 469.91,434.37 496.07,358.6 c 2.05,-6.31 4.39,-13.59 7.04,-21.95 2.59,-8.42 5.23,-16.78 7.82,-25.14 2.65,-8.36 4.63,-15.81 6.01,-22.49 h 3.67 c 1.74,4.93 3.49,10.64 5.23,17.26 1.74,6.67 3.55,13.17 5.47,19.6 1.92,6.49 3.85,12.57 5.77,18.34 1.92,5.71 3.55,10.52 4.99,14.37 l 25.62,75.77 h -97.78 z"
         id="path2"
         style="fill:#000000;fill-opacity:1" />
      <path
         class="cls-2"
         d="m 227.41,572.94 c -22.66,0 -43.91,-2.01 -63.78,-6.01 -19.87,-4.01 -37.38,-10.54 -52.54,-19.61 -15.16,-9.06 -27.1,-21 -35.81,-35.81 C 66.56,496.7 62.2,478.49 62.2,456.87 v -4.7 c 0,-1.74 0.17,-3.14 0.52,-4.18 h 90.45 c 0,1.04 -0.09,2.35 -0.26,3.92 -0.18,1.57 -0.26,2.87 -0.26,3.92 0,11.15 2.87,20.12 8.62,26.92 5.75,6.79 13.86,11.68 24.31,14.64 10.46,2.96 22.66,4.45 36.6,4.45 7.66,0 14.81,-0.35 21.43,-1.05 6.62,-0.69 12.55,-1.91 17.78,-3.66 5.23,-1.74 9.84,-3.92 13.85,-6.53 4.01,-2.62 6.98,-5.75 8.89,-9.42 1.91,-3.66 2.88,-7.92 2.88,-12.81 0,-8.01 -3.06,-14.64 -9.15,-19.87 -6.11,-5.23 -14.3,-9.58 -24.58,-13.07 -10.28,-3.47 -21.88,-6.79 -34.77,-9.93 -12.9,-3.13 -26.31,-6.44 -40.26,-9.93 -13.94,-3.48 -27.36,-7.84 -40.26,-13.08 -12.9,-5.23 -24.49,-11.84 -34.77,-19.86 -10.28,-8.01 -18.48,-18.04 -24.57,-30.06 -6.11,-12.03 -9.15,-26.58 -9.15,-43.66 0,-18.82 4.01,-35.11 12.03,-48.88 8.01,-13.76 19.09,-25 33.2,-33.72 14.12,-8.71 30.41,-15.07 48.89,-19.08 18.47,-4 38.16,-6.01 59.08,-6.01 20.92,0 39.82,2.09 57.77,6.28 17.95,4.18 33.9,10.72 47.84,19.61 13.94,8.89 24.83,20.05 32.68,33.46 7.84,13.42 11.93,29.53 12.28,48.35 v 6.28 h -89.91 v -3.66 c 0,-8.01 -2.18,-15.07 -6.54,-21.17 -4.37,-6.09 -10.9,-10.98 -19.61,-14.64 -8.71,-3.66 -19.52,-5.5 -32.41,-5.5 -12.89,0 -23.78,1.23 -32.68,3.67 -8.89,2.44 -15.69,5.93 -20.39,10.45 -4.7,4.53 -7.06,9.93 -7.06,16.21 0,7.67 3.05,13.94 9.15,18.82 6.09,4.89 14.37,9.07 24.83,12.54 10.45,3.49 22.12,6.72 35.03,9.67 12.88,2.97 26.22,6.11 39.99,9.41 13.76,3.32 27.09,7.5 39.99,12.55 12.89,5.06 24.57,11.5 35.03,19.34 10.45,7.84 18.73,17.51 24.83,29.02 6.09,11.5 9.15,25.44 9.15,41.82 0,28.58 -6.72,51.59 -20.12,69.01 -13.43,17.43 -31.9,30.15 -55.42,38.16 -23.53,8.01 -50.11,12.03 -79.73,12.03 z"
         id="path3"
         style="fill:#000000;fill-opacity:1" />
    </g>
    <g
       id="g6"
       transform="matrix(0.84389227,0,0,0.84389227,-47.595379,32.564932)"
       style="display:none;fill:#ffffff;fill-opacity:1">
      <path
         class="cls-2"
         d="M 577.07,207.49 H 464.68 l -66.15,176.13 c 2.53,3.67 4.75,7.46 6.85,11.37 8.9,16.78 13.35,36.5 13.35,58.75 0,36.62 -9.26,67.23 -27.6,91.04 -6.19,8.06 -13.23,15.33 -20.99,21.89 h 55.8 l 21.47,-62.24 h 143.24 l 21.47,62.24 h 99.82 L 577.06,207.5 Z M 469.91,434.37 496.07,358.6 c 2.05,-6.31 4.39,-13.59 7.04,-21.95 2.59,-8.42 5.23,-16.78 7.82,-25.14 2.65,-8.36 4.63,-15.81 6.01,-22.49 h 3.67 c 1.74,4.93 3.49,10.64 5.23,17.26 1.74,6.67 3.55,13.17 5.47,19.6 1.92,6.49 3.85,12.57 5.77,18.34 1.92,5.71 3.55,10.52 4.99,14.37 l 25.62,75.77 h -97.78 z"
         id="path5"
         style="fill:#ffffff;fill-opacity:1" />
      <path
         class="cls-2"
         d="m 227.41,572.94 c -22.66,0 -43.91,-2.01 -63.78,-6.01 -19.87,-4.01 -37.38,-10.54 -52.54,-19.61 -15.16,-9.06 -27.1,-21 -35.81,-35.81 C 66.56,496.7 62.2,478.49 62.2,456.87 v -4.7 c 0,-1.74 0.17,-3.14 0.52,-4.18 h 90.45 c 0,1.04 -0.09,2.35 -0.26,3.92 -0.18,1.57 -0.26,2.87 -0.26,3.92 0,11.15 2.87,20.12 8.62,26.92 5.75,6.79 13.86,11.68 24.31,14.64 10.46,2.96 22.66,4.45 36.6,4.45 7.66,0 14.81,-0.35 21.43,-1.05 6.62,-0.69 12.55,-1.91 17.78,-3.66 5.23,-1.74 9.84,-3.92 13.85,-6.53 4.01,-2.62 6.98,-5.75 8.89,-9.42 1.91,-3.66 2.88,-7.92 2.88,-12.81 0,-8.01 -3.06,-14.64 -9.15,-19.87 -6.11,-5.23 -14.3,-9.58 -24.58,-13.07 -10.28,-3.47 -21.88,-6.79 -34.77,-9.93 -12.9,-3.13 -26.31,-6.44 -40.26,-9.93 -13.94,-3.48 -27.36,-7.84 -40.26,-13.08 -12.9,-5.23 -24.49,-11.84 -34.77,-19.86 -10.28,-8.01 -18.48,-18.04 -24.57,-30.06 -6.11,-12.03 -9.15,-26.58 -9.15,-43.66 0,-18.82 4.01,-35.11 12.03,-48.88 8.01,-13.76 19.09,-25 33.2,-33.72 14.12,-8.71 30.41,-15.07 48.89,-19.08 18.47,-4 38.16,-6.01 59.08,-6.01 20.92,0 39.82,2.09 57.77,6.28 17.95,4.18 33.9,10.72 47.84,19.61 13.94,8.89 24.83,20.05 32.68,33.46 7.84,13.42 11.93,29.53 12.28,48.35 v 6.28 h -89.91 v -3.66 c 0,-8.01 -2.18,-15.07 -6.54,-21.17 -4.37,-6.09 -10.9,-10.98 -19.61,-14.64 -8.71,-3.66 -19.52,-5.5 -32.41,-5.5 -12.89,0 -23.78,1.23 -32.68,3.67 -8.89,2.44 -15.69,5.93 -20.39,10.45 -4.7,4.53 -7.06,9.93 -7.06,16.21 0,7.67 3.05,13.94 9.15,18.82 6.09,4.89 14.37,9.07 24.83,12.54 10.45,3.49 22.12,6.72 35.03,9.67 12.88,2.97 26.22,6.11 39.99,9.41 13.76,3.32 27.09,7.5 39.99,12.55 12.89,5.06 24.57,11.5 35.03,19.34 10.45,7.84 18.73,17.51 24.83,29.02 6.09,11.5 9.15,25.44 9.15,41.82 0,28.58 -6.72,51.59 -20.12,69.01 -13.43,17.43 -31.9,30.15 -55.42,38.16 -23.53,8.01 -50.11,12.03 -79.73,12.03 z"
         id="path6"
         style="fill:#ffffff;fill-opacity:1" />
    </g>
    <g
       id="g4"
       transform="matrix(0.84389227,0,0,0.84389227,-47.595379,32.564932)"
       style="fill:#3d74d4;fill-opacity:1">
      <path
         class="cls-2"
         d="M 577.07,207.49 H 464.68 l -66.15,176.13 c 2.53,3.67 4.75,7.46 6.85,11.37 8.9,16.78 13.35,36.5 13.35,58.75 0,36.62 -9.26,67.23 -27.6,91.04 -6.19,8.06 -13.23,15.33 -20.99,21.89 h 55.8 l 21.47,-62.24 h 143.24 l 21.47,62.24 h 99.82 L 577.06,207.5 Z M 469.91,434.37 496.07,358.6 c 2.05,-6.31 4.39,-13.59 7.04,-21.95 2.59,-8.42 5.23,-16.78 7.82,-25.14 2.65,-8.36 4.63,-15.81 6.01,-22.49 h 3.67 c 1.74,4.93 3.49,10.64 5.23,17.26 1.74,6.67 3.55,13.17 5.47,19.6 1.92,6.49 3.85,12.57 5.77,18.34 1.92,5.71 3.55,10.52 4.99,14.37 l 25.62,75.77 h -97.78 z"
         id="path1"
         style="fill:#3d74d4;fill-opacity:1" />
      <path
         class="cls-2"
         d="m 227.41,572.94 c -22.66,0 -43.91,-2.01 -63.78,-6.01 -19.87,-4.01 -37.38,-10.54 -52.54,-19.61 -15.16,-9.06 -27.1,-21 -35.81,-35.81 C 66.56,496.7 62.2,478.49 62.2,456.87 v -4.7 c 0,-1.74 0.17,-3.14 0.52,-4.18 h 90.45 c 0,1.04 -0.09,2.35 -0.26,3.92 -0.18,1.57 -0.26,2.87 -0.26,3.92 0,11.15 2.87,20.12 8.62,26.92 5.75,6.79 13.86,11.68 24.31,14.64 10.46,2.96 22.66,4.45 36.6,4.45 7.66,0 14.81,-0.35 21.43,-1.05 6.62,-0.69 12.55,-1.91 17.78,-3.66 5.23,-1.74 9.84,-3.92 13.85,-6.53 4.01,-2.62 6.98,-5.75 8.89,-9.42 1.91,-3.66 2.88,-7.92 2.88,-12.81 0,-8.01 -3.06,-14.64 -9.15,-19.87 -6.11,-5.23 -14.3,-9.58 -24.58,-13.07 -10.28,-3.47 -21.88,-6.79 -34.77,-9.93 -12.9,-3.13 -26.31,-6.44 -40.26,-9.93 -13.94,-3.48 -27.36,-7.84 -40.26,-13.08 -12.9,-5.23 -24.49,-11.84 -34.77,-19.86 -10.28,-8.01 -18.48,-18.04 -24.57,-30.06 -6.11,-12.03 -9.15,-26.58 -9.15,-43.66 0,-18.82 4.01,-35.11 12.03,-48.88 8.01,-13.76 19.09,-25 33.2,-33.72 14.12,-8.71 30.41,-15.07 48.89,-19.08 18.47,-4 38.16,-6.01 59.08,-6.01 20.92,0 39.82,2.09 57.77,6.28 17.95,4.18 33.9,10.72 47.84,19.61 13.94,8.89 24.83,20.05 32.68,33.46 7.84,13.42 11.93,29.53 12.28,48.35 v 6.28 h -89.91 v -3.66 c 0,-8.01 -2.18,-15.07 -6.54,-21.17 -4.37,-6.09 -10.9,-10.98 -19.61,-14.64 -8.71,-3.66 -19.52,-5.5 -32.41,-5.5 -12.89,0 -23.78,1.23 -32.68,3.67 -8.89,2.44 -15.69,5.93 -20.39,10.45 -4.7,4.53 -7.06,9.93 -7.06,16.21 0,7.67 3.05,13.94 9.15,18.82 6.09,4.89 14.37,9.07 24.83,12.54 10.45,3.49 22.12,6.72 35.03,9.67 12.88,2.97 26.22,6.11 39.99,9.41 13.76,3.32 27.09,7.5 39.99,12.55 12.89,5.06 24.57,11.5 35.03,19.34 10.45,7.84 18.73,17.51 24.83,29.02 6.09,11.5 9.15,25.44 9.15,41.82 0,28.58 -6.72,51.59 -20.12,69.01 -13.43,17.43 -31.9,30.15 -55.42,38.16 -23.53,8.01 -50.11,12.03 -79.73,12.03 z"
         id="path4"
         style="fill:#3d74d4;fill-opacity:1" />
    </g>
  </g>
</svg>
