<?xml version="1.0" encoding="UTF-8"?>
<svg id="Layer_2" data-name="Layer 2" xmlns="http://www.w3.org/2000/svg" viewBox="0 0 2880 774.15">
  <defs>
    <style>
      .cls-1 {
        fill: #3d74d4;
      }

      .cls-2 {
        fill: #fff;
      }
    </style>
  </defs>
  <g id="Layer_1" data-name="Layer 1">
    <g id="logo_design" data-name="logo design">
      <g>
        <path class="cls-1" d="M225.95,0h322.25c124.71,0,225.95,101.25,225.95,225.95v322.25c0,124.71-101.25,225.95-225.95,225.95H225.95C101.25,774.15,0,672.91,0,548.2V225.95C0,101.25,101.25,0,225.95,0Z"/>
        <g>
          <path class="cls-2" d="M577.07,207.49h-112.39l-66.15,176.13c2.53,3.67,4.75,7.46,6.85,11.37,8.9,16.78,13.35,36.5,13.35,58.75,0,36.62-9.26,67.23-27.6,91.04-6.19,8.06-13.23,15.33-20.99,21.89h55.8l21.47-62.24h143.24l21.47,62.24h99.82l-134.88-359.17ZM469.91,434.37l26.16-75.77c2.05-6.31,4.39-13.59,7.04-21.95,2.59-8.42,5.23-16.78,7.82-25.14,2.65-8.36,4.63-15.81,6.01-22.49h3.67c1.74,4.93,3.49,10.64,5.23,17.26,1.74,6.67,3.55,13.17,5.47,19.6,1.92,6.49,3.85,12.57,5.77,18.34,1.92,5.71,3.55,10.52,4.99,14.37l25.62,75.77h-97.78Z"/>
          <path class="cls-2" d="M227.41,572.94c-22.66,0-43.91-2.01-63.78-6.01-19.87-4.01-37.38-10.54-52.54-19.61-15.16-9.06-27.1-21-35.81-35.81-8.72-14.81-13.08-33.02-13.08-54.64v-4.7c0-1.74.17-3.14.52-4.18h90.45c0,1.04-.09,2.35-.26,3.92-.18,1.57-.26,2.87-.26,3.92,0,11.15,2.87,20.12,8.62,26.92,5.75,6.79,13.86,11.68,24.31,14.64,10.46,2.96,22.66,4.45,36.6,4.45,7.66,0,14.81-.35,21.43-1.05,6.62-.69,12.55-1.91,17.78-3.66,5.23-1.74,9.84-3.92,13.85-6.53,4.01-2.62,6.98-5.75,8.89-9.42,1.91-3.66,2.88-7.92,2.88-12.81,0-8.01-3.06-14.64-9.15-19.87-6.11-5.23-14.3-9.58-24.58-13.07-10.28-3.47-21.88-6.79-34.77-9.93-12.9-3.13-26.31-6.44-40.26-9.93-13.94-3.48-27.36-7.84-40.26-13.08-12.9-5.23-24.49-11.84-34.77-19.86-10.28-8.01-18.48-18.04-24.57-30.06-6.11-12.03-9.15-26.58-9.15-43.66,0-18.82,4.01-35.11,12.03-48.88,8.01-13.76,19.09-25,33.2-33.72,14.12-8.71,30.41-15.07,48.89-19.08,18.47-4,38.16-6.01,59.08-6.01s39.82,2.09,57.77,6.28c17.95,4.18,33.9,10.72,47.84,19.61,13.94,8.89,24.83,20.05,32.68,33.46,7.84,13.42,11.93,29.53,12.28,48.35v6.28h-89.91v-3.66c0-8.01-2.18-15.07-6.54-21.17-4.37-6.09-10.9-10.98-19.61-14.64-8.71-3.66-19.52-5.5-32.41-5.5s-23.78,1.23-32.68,3.67c-8.89,2.44-15.69,5.93-20.39,10.45-4.7,4.53-7.06,9.93-7.06,16.21,0,7.67,3.05,13.94,9.15,18.82,6.09,4.89,14.37,9.07,24.83,12.54,10.45,3.49,22.12,6.72,35.03,9.67,12.88,2.97,26.22,6.11,39.99,9.41,13.76,3.32,27.09,7.5,39.99,12.55,12.89,5.06,24.57,11.5,35.03,19.34,10.45,7.84,18.73,17.51,24.83,29.02,6.09,11.5,9.15,25.44,9.15,41.82,0,28.58-6.72,51.59-20.12,69.01-13.43,17.43-31.9,30.15-55.42,38.16-23.53,8.01-50.11,12.03-79.73,12.03Z"/>
        </g>
      </g>
      <g>
        <g>
          <path d="M1108.09,459.87c-23.28,0-45.12-2.07-65.53-6.18-20.41-4.12-38.41-10.83-53.98-20.14-15.58-9.31-27.84-21.57-36.8-36.79-8.95-15.22-13.42-33.93-13.42-56.13v-4.83c0-1.79.17-3.23.54-4.3h92.91c0,1.07-.09,2.42-.26,4.03-.19,1.61-.28,2.95-.28,4.03,0,11.46,2.96,20.67,8.87,27.66,5.91,6.98,14.23,12,24.98,15.04,10.74,3.05,23.27,4.57,37.59,4.57,7.88,0,15.22-.36,22.02-1.08,6.8-.71,12.89-1.96,18.26-3.76,5.37-1.78,10.11-4.03,14.23-6.71,4.11-2.69,7.15-5.91,9.13-9.67,1.96-3.76,2.95-8.14,2.95-13.16,0-8.23-3.13-15.04-9.4-20.41-6.27-5.37-14.69-9.84-25.24-13.43-10.57-3.57-22.47-6.98-35.72-10.21-13.25-3.22-27.04-6.61-41.36-10.2-14.33-3.58-28.11-8.06-41.36-13.43-13.25-5.37-25.16-12.17-35.72-20.41-10.56-8.23-18.98-18.53-25.24-30.88-6.27-12.36-9.4-27.3-9.4-44.85,0-19.33,4.11-36.07,12.36-50.22,8.23-14.14,19.6-25.69,34.1-34.65,14.5-8.95,31.24-15.48,50.22-19.6,18.98-4.11,39.21-6.18,60.69-6.18s40.91,2.15,59.35,6.45c18.44,4.3,34.82,11.01,49.14,20.14,14.32,9.13,25.51,20.59,33.57,34.38,8.06,13.78,12.26,30.34,12.62,49.68v6.45h-92.39v-3.76c0-8.23-2.24-15.48-6.71-21.75-4.48-6.26-11.2-11.28-20.14-15.04-8.95-3.76-20.06-5.65-33.3-5.65s-24.44,1.26-33.57,3.77c-9.13,2.51-16.11,6.09-20.94,10.74-4.84,4.66-7.26,10.21-7.26,16.65,0,7.88,3.13,14.32,9.4,19.33,6.27,5.02,14.77,9.32,25.51,12.89,10.75,3.58,22.74,6.9,35.99,9.94,13.24,3.05,26.94,6.27,41.09,9.67,14.15,3.41,27.84,7.71,41.09,12.89,13.24,5.19,25.25,11.82,35.99,19.87,10.75,8.06,19.25,17.99,25.51,29.81,6.27,11.82,9.4,26.14,9.4,42.97,0,29.37-6.9,53-20.68,70.9-13.78,17.91-32.76,30.98-56.93,39.21-24.16,8.23-51.48,12.36-81.91,12.36Z"/>
          <path d="M1421.76,453.43V163.39h-119.77v-78.96h335.69v78.96h-119.77v290.04h-96.15Z"/>
          <path d="M1854.12,459.87c-40.46,0-75.11-7.07-103.93-21.22-28.83-14.14-50.94-35.35-66.34-63.64-15.4-28.29-23.09-63.74-23.09-106.35s7.69-77.96,23.09-106.08c15.4-28.11,37.51-49.23,66.34-63.38,28.82-14.14,63.47-21.22,103.93-21.22s75.11,7.08,103.93,21.22c28.82,14.15,50.94,35.27,66.34,63.38,15.39,28.11,23.09,63.47,23.09,106.08s-7.7,78.06-23.09,106.35c-15.4,28.29-37.52,49.5-66.34,63.64-28.82,14.15-63.47,21.22-103.93,21.22ZM1854.12,384.68c15.39,0,29.01-2.32,40.83-6.99,11.82-4.65,21.75-11.45,29.81-20.41,8.06-8.95,14.05-19.87,17.99-32.77,3.93-12.89,5.9-27.39,5.9-43.51v-23.63c0-16.46-1.97-31.15-5.9-44.04-3.95-12.89-9.94-23.81-17.99-32.77-8.06-8.95-17.99-15.75-29.81-20.41-11.82-4.65-25.43-6.99-40.83-6.99s-29.53,2.34-41.35,6.99c-11.82,4.66-21.67,11.46-29.55,20.41-7.88,8.96-13.78,19.87-17.72,32.77-3.94,12.89-5.91,27.57-5.91,44.04v23.63c0,16.11,1.97,30.62,5.91,43.51,3.94,12.89,9.84,23.82,17.72,32.77,7.88,8.95,17.73,15.76,29.55,20.41,11.82,4.66,25.59,6.99,41.35,6.99Z"/>
          <path d="M2281.67,459.87c-39.75,0-73.51-6.89-101.25-20.68-27.76-13.78-48.8-34.82-63.11-63.11-14.33-28.28-21.48-64.09-21.48-107.42,0-63.73,16.02-111.45,48.07-143.14,32.05-31.69,77.96-47.53,137.77-47.53,33.3,0,62.84,5.65,88.62,16.92,25.78,11.28,45.92,28.11,60.42,50.49,14.5,22.39,21.75,50.22,21.75,83.52h-93.99c0-15.75-3.14-29.27-9.4-40.56-6.27-11.28-15.04-19.95-26.31-26.04-11.28-6.09-24.97-9.14-41.09-9.14-20.06,0-36.53,4.12-49.42,12.36-12.89,8.24-22.38,20.06-28.46,35.45-6.1,15.4-9.13,34.02-9.13,55.86v24.16c0,21.85,3.03,40.56,9.13,56.13,6.08,15.58,15.48,27.39,28.2,35.45,12.71,8.06,29.08,12.09,49.14,12.09,17.19,0,31.78-2.86,43.78-8.6,11.99-5.72,21.12-14.23,27.39-25.51,6.26-11.28,9.4-24.79,9.4-40.55h90.77c0,33.3-7.07,61.05-21.21,83.25-14.15,22.21-34.03,38.86-59.62,49.95-25.61,11.1-55.59,16.65-89.96,16.65Z"/>
          <path d="M2515.84,453.43V84.43h96.14v163.82l146.09-163.82h119.24l-137.5,150.92,140.18,218.07h-113.86l-92.91-152.54-61.24,56.4v96.14h-96.14Z"/>
        </g>
        <g>
          <path d="M938.37,693.04l67.38-179.41h56.14l67.38,179.41h-49.88l-10.7-31.08h-71.56l-10.7,31.08h-48.06ZM1008.36,626.96h48.84l-12.8-37.86c-.7-1.91-1.52-4.31-2.48-7.18-.96-2.87-1.92-5.92-2.87-9.14-.96-3.22-1.88-6.48-2.75-9.79-.87-3.31-1.74-6.18-2.61-8.62h-1.83c-.7,3.31-1.7,7.06-3,11.23-1.3,4.18-2.61,8.36-3.92,12.54-1.31,4.18-2.49,7.84-3.53,10.97l-13.06,37.86Z"/>
          <path d="M1236.86,693.04v-179.41h41.51l65.29,83.31c1.22,1.4,2.83,3.39,4.83,6.01,2,2.61,3.97,5.27,5.88,7.96,1.91,2.71,3.3,4.83,4.18,6.4l1.3-.26v-103.42h43.35v179.41h-41.27l-69.2-87.74c-2.27-2.78-4.39-5.66-6.4-8.62-2-2.95-3.62-5.39-4.83-7.31l-1.31.26v103.41h-43.34Z"/>
          <path d="M1511.06,693.04l67.38-179.41h56.14l67.38,179.41h-49.88l-10.7-31.08h-71.56l-10.7,31.08h-48.06ZM1581.05,626.96h48.84l-12.8-37.86c-.7-1.91-1.52-4.31-2.48-7.18-.96-2.87-1.92-5.92-2.87-9.14-.96-3.22-1.88-6.48-2.75-9.79-.87-3.31-1.74-6.18-2.61-8.62h-1.83c-.7,3.31-1.7,7.06-3,11.23-1.3,4.18-2.61,8.36-3.92,12.54-1.31,4.18-2.49,7.84-3.53,10.97l-13.06,37.86Z"/>
          <path d="M1809.56,693.04v-179.41h46.74v141.02h91.14v38.39h-137.89Z"/>
          <path d="M2076.45,693.04v-71.03l-70.25-108.38h54.05l40.22,67.12h1.3l39.95-67.12h51.18l-69.46,108.38v71.03h-47.01Z"/>
          <path d="M2362.14,696.17c-11.32,0-21.94-1-31.86-3-9.92-2-18.67-5.26-26.25-9.79-7.57-4.53-13.54-10.48-17.89-17.89-4.36-7.4-6.53-16.49-6.53-27.29v-2.35c0-.87.09-1.57.26-2.09h45.18c0,.52-.04,1.18-.13,1.96-.09.79-.13,1.44-.13,1.96,0,5.58,1.43,10.05,4.31,13.45,2.87,3.4,6.91,5.84,12.14,7.32,5.22,1.48,11.31,2.22,18.28,2.22,3.83,0,7.4-.17,10.71-.52,3.3-.35,6.26-.96,8.88-1.83,2.61-.87,4.92-1.96,6.92-3.27,2-1.3,3.49-2.87,4.44-4.7.96-1.83,1.44-3.96,1.44-6.4,0-4-1.53-7.32-4.58-9.92-3.05-2.61-7.14-4.79-12.27-6.53-5.14-1.74-10.92-3.39-17.37-4.96-6.44-1.57-13.15-3.22-20.1-4.97-6.97-1.74-13.67-3.92-20.1-6.52-6.45-2.61-12.24-5.92-17.37-9.92-5.14-4-9.23-9.01-12.28-15.02-3.05-6.01-4.57-13.28-4.57-21.8,0-9.4,2-17.54,6.01-24.42,4-6.87,9.54-12.49,16.58-16.84,7.05-4.35,15.18-7.53,24.42-9.54,9.22-2,19.06-3,29.51-3s19.88,1.05,28.85,3.13c8.97,2.09,16.93,5.36,23.9,9.8,6.96,4.44,12.4,10.01,16.32,16.71,3.92,6.7,5.96,14.76,6.13,24.16v3.13h-44.91v-1.83c0-4-1.09-7.52-3.27-10.58-2.17-3.04-5.44-5.48-9.79-7.31-4.35-1.83-9.75-2.74-16.19-2.74s-11.87.62-16.32,1.83c-4.43,1.22-7.83,2.96-10.18,5.22-2.35,2.27-3.52,4.97-3.52,8.1,0,3.83,1.52,6.96,4.56,9.4,3.05,2.44,7.18,4.53,12.41,6.27,5.22,1.74,11.05,3.36,17.5,4.83,6.43,1.48,13.09,3.05,19.98,4.7,6.87,1.65,13.53,3.74,19.98,6.26,6.43,2.53,12.27,5.75,17.5,9.66,5.22,3.92,9.35,8.75,12.4,14.49,3.05,5.75,4.58,12.71,4.58,20.89,0,14.28-3.36,25.77-10.06,34.47-6.7,8.71-15.93,15.06-27.68,19.06-11.75,4.01-25.03,6.01-39.83,6.01Z"/>
          <path d="M2555.92,693.04v-179.41h46.74v179.41h-46.74Z"/>
          <path d="M2802.44,696.17c-11.32,0-21.94-1-31.86-3-9.92-2-18.67-5.26-26.24-9.79-7.58-4.53-13.54-10.48-17.89-17.89-4.35-7.4-6.53-16.49-6.53-27.29v-2.35c0-.87.09-1.57.27-2.09h45.18c0,.52-.05,1.18-.13,1.96-.09.79-.13,1.44-.13,1.96,0,5.58,1.43,10.05,4.31,13.45,2.88,3.4,6.92,5.84,12.14,7.32,5.23,1.48,11.32,2.22,18.28,2.22,3.83,0,7.4-.17,10.7-.52,3.31-.35,6.27-.96,8.88-1.83,2.61-.87,4.92-1.96,6.91-3.27,2-1.3,3.49-2.87,4.45-4.7.95-1.83,1.43-3.96,1.43-6.4,0-4-1.53-7.32-4.57-9.92-3.05-2.61-7.14-4.79-12.28-6.53-5.14-1.74-10.92-3.39-17.36-4.96-6.44-1.57-13.15-3.22-20.11-4.97-6.96-1.74-13.67-3.92-20.1-6.52-6.45-2.61-12.23-5.92-17.37-9.92-5.14-4-9.22-9.01-12.27-15.02-3.05-6.01-4.58-13.28-4.58-21.8,0-9.4,2-17.54,6.01-24.42,4.01-6.87,9.54-12.49,16.59-16.84,7.04-4.35,15.18-7.53,24.41-9.54,9.22-2,19.06-3,29.51-3s19.89,1.05,28.85,3.13c8.96,2.09,16.93,5.36,23.89,9.8,6.96,4.44,12.41,10.01,16.32,16.71,3.92,6.7,5.96,14.76,6.13,24.16v3.13h-44.91v-1.83c0-4-1.09-7.52-3.27-10.58-2.17-3.04-5.44-5.48-9.79-7.31-4.36-1.83-9.75-2.74-16.19-2.74s-11.88.62-16.32,1.83c-4.44,1.22-7.83,2.96-10.18,5.22-2.35,2.27-3.53,4.97-3.53,8.1,0,3.83,1.52,6.96,4.57,9.4,3.04,2.44,7.18,4.53,12.4,6.27,5.23,1.74,11.05,3.36,17.5,4.83,6.44,1.48,13.1,3.05,19.98,4.7,6.87,1.65,13.53,3.74,19.98,6.26,6.44,2.53,12.27,5.75,17.5,9.66,5.23,3.92,9.36,8.75,12.4,14.49,3.04,5.75,4.57,12.71,4.57,20.89,0,14.28-3.36,25.77-10.05,34.47-6.71,8.71-15.93,15.06-27.68,19.06-11.76,4.01-25.04,6.01-39.83,6.01Z"/>
        </g>
      </g>
    </g>
  </g>
</svg>